# xmcd CD database file
#
# Track frame offsets:
#	150
#	33318
#	64026
#	96013
#	129089
#	156764
#	187664
#	217990
#
# Disc length: 3355 seconds
#
# Revision: 0
# Processed by: cddbd v1.5.2PL0 Copyright (c) Steve Scherf et al.
# Submitted via: CDex 1.51
#
DISCID=590d1908
DTITLE=Dan Gibson - Solitudes - Nuturing Rain
DYEAR=2001
DGENRE=New Age
TTITLE0=Splendor
TTITLE1=Whispers Of Rain
TTITLE2=Silver Days
TTITLE3=Refuge From The Storm
TTITLE4=Translucence
TTITLE5=Natural Grace
TTITLE6=Renewal
TTITLE7=Illumination
EXTD=YEAR: 2001
EXTT0=
EXTT1=
EXTT2=
EXTT3=
EXTT4=
EXTT5=
EXTT6=
EXTT7=
PLAYORDER=
